# xmcd CD database file
#
# Track frame offsets:
#	150
#	12173
#	28161
#	38411
#	50631
#	65673
#	78948
#	90019
#	103128
#	124829
#	135568
#	144641
#	157861
#	168606
#	181125
#	190806
#	202462
#	215496
#	228254
#	240201
#	253220
#	270862
#	281616
#	299405
#	311416
#	322884
#
# Disc length: 4435 seconds
#
# Revision: 1
# Processed by: cddbd v1.4PL0 Copyright (c) Steve Scherf et al.
# Submitted via: CDex 1.50beta10
#
DISCID=6a11511a
DTITLE=Varios - Pachanga Boogaloo Cd 1
DYEAR=2000
DGENRE=Salsa
TTITLE0=Mon Rivera - Dolores
TTITLE1=Tonny Braeety - Gibarito
TTITLE2=Jose Corbelo -  Sun Sun Babae
TTITLE3=Damiron - La Cosecha De Mujeres
TTITLE4=Mongo Santamaria - Pachanga Twist
TTITLE5=Bobby Montes - Mañana Pachanga
TTITLE6=Billy Rodriguez - Maria Chiquita
TTITLE7=Sandumoro - Guerra Balin
TTITLE8=Machito - Fantasia Cubana
TTITLE9=Limbomaniacs - Jamaica Farewell
TTITLE10=Olguita - Sea Como Sea
TTITLE11=Carlos Pizarro - Por Un Mani
TTITLE12=All Castellanos - Pachanga Yes
TTITLE13=Pete Terrace - Mi China
TTITLE14=Latin Dimension - Eleonor Rigby
TTITLE15=Los Her Mercado - Swing De Pachanga
TTITLE16=Randy Carlos - Take Of
TTITLE17=Lovi Ramirez - Dance Pachanga
TTITLE18=El Guiro Y Su Chacharriar
TTITLE19=Doris Valladares - Yo La Vi
TTITLE20=Eddie Palmieri - Cinturita
TTITLE21=Limbo
TTITLE22=Johnny Rivera - La Tequila Llego
TTITLE23=Chorolo - Casabe De Yuca
TTITLE24=Sexteto Fantasia - Lulu
TTITLE25=Peruchin - Tres Lindas Cubanas
EXTD=YEAR: 2000
EXTT0=
EXTT1=
EXTT2=
EXTT3=
EXTT4=
EXTT5=
EXTT6=
EXTT7=
EXTT8=
EXTT9=
EXTT10=
EXTT11=
EXTT12=
EXTT13=
EXTT14=
EXTT15=
EXTT16=
EXTT17=
EXTT18=
EXTT19=
EXTT20=
EXTT21=
EXTT22=
EXTT23=
EXTT24=
EXTT25=
PLAYORDER=
